# xmcd
#
# Track frame offsets: 
#        180
#        14409
#        26912
#        41830
#        56276
#        70121
#        82804
#        96355
#        109391
#        123704
#        135688
#        148581
#        162214
#        175150
#        188789
#        201168
#        212243
#        223235
#        237946
#        251174
#        263256
#        275825
#        288165
#        299541
#
# Disc length: 4135 seconds
#
# Revision: 0
# Processed by: cddbd v1.5.2PL0 Copyright (c) Steve Scherf et al.
# Submitted via: ExactAudioCopy v0.95b4
#
DISCID=7a102518
DTITLE=Various Artist - Blues Generations Vol. 2 [CD 3]
DYEAR=2006
DGENRE=Blues
TTITLE0=Bessie Smith - Easy Come, Easy Go Blues
TTITLE1=Mississippi John Hurt - Candy Man Blues
TTITLE2=Memphis Minnie - Bumble Bee
TTITLE3=Big Bill Bronzy - Baby Please Don't Go
TTITLE4=Big Joe Williams - I Know You Gonna Mis Me
TTITLE5=Bukka White - Pinebluff, Arkansas
TTITLE6=John Lee Williamson - Good Morning Little School Girl
TTITLE7=Kokomo Arnold - Fool Man Blues
TTITLE8=Leadbelly - Alberta
TTITLE9=Brownie Mc Ghee - Deep Sea River
TTITLE10=Big Joe Williams - Crawling King Snake
TTITLE11=Brownie Mc Ghee - I Don't Believe In Love
TTITLE12=Arthur Big Boy Crudup - Gibe Me A 32 - 20
TTITLE13=Arthur Big Boy Crudup - Hoodoo Lady Blues
TTITLE14=Sonny Terry - Beer Garden Blues
TTITLE15=Big Joe Turner - Nobody In My Mind
TTITLE16=Sonny Terry - Harmonica Blues
TTITLE17=John Lee Hooker - Marcy Blues
TTITLE18=T-Bone Walker - I'm Gonna Find My Baby
TTITLE19=John Lee Hooker - Ground Hog
TTITLE20=John Lee Hooker - Huckle Up Baby
TTITLE21=John Lee Hooker - High Priced Woman
TTITLE22=John Lee Hooker - Blue Monday
TTITLE23=John Lee Hooker - I Want To Shout
EXTD=
EXTT0=
EXTT1=
EXTT2=
EXTT3=
EXTT4=
EXTT5=
EXTT6=
EXTT7=
EXTT8=
EXTT9=
EXTT10=
EXTT11=
EXTT12=
EXTT13=
EXTT14=
EXTT15=
EXTT16=
EXTT17=
EXTT18=
EXTT19=
EXTT20=
EXTT21=
EXTT22=
EXTT23=
PLAYORDER=
